<svg xmlns="http://www.w3.org/2000/svg" xmlns:xlink="http://www.w3.org/1999/xlink" width="1000" height="510" viewBox="0 0 1000 510"><defs><clipPath id="a"><rect x="-12.1" y="-6.2" width="1024.2" height="392.05" fill="none"/></clipPath><linearGradient id="b" x1="496.2" y1="330.28" x2="496.2" y2="-227.32" gradientUnits="userSpaceOnUse"><stop offset="0" stop-color="#ababab"/><stop offset="1" stop-color="#666"/></linearGradient></defs><title>dimetrodon</title><g clip-path="url(#a)"><rect x="-21.6" y="-227.3" width="1035.6" height="557.61" fill="url(#b)"/></g><path d="M1012.2,517.4H-12.2V310.8H-8c2.7-4.2,6.7,19.3,11.9,0,5.2,6.3,11.6-.8,19.1,0,3.7,1.5,7.8-.8,12-2.3s8.8-2.3,13.6,2.3c4.8-24,9.8-13.1,15.1-3.6,5.3,13.5,10.8,6.4,16.5,3.6,5.7-4.9,11.7,7,17.8-1.2,6.2,3.8,12.5,2,19.1,1.2,6.6-4,13.3,3.6,20.2,1,6.9,2.1,14.1-7.2,21.3-1,7.3,4,14.7,10.9,22.4.5,7.6,1,15.4,6.1,23.3-.5a55,55,0,0,1,24.1-4.5,96,96,0,0,1,24.9,4.5c16.9-12.4,34.2-12.8,51.9,0,17.7,1.7,35.8,2.5,54.1,0,9.2,8.1,18.4,2.5,27.7,3,9.3-2.8,18.6-15.1,28-3,6.2-5.6,12.5-18.9,18.8-9.4,6.3-.4,12.6,11.3,18.9,5.7,6.3,0.5,12.6.6,18.9,3.8,6.3,1.1,12.6,4.3,19,8.9s12.6,0.7,19-.2c3.2-2.4,6.3-1.9,9.5-2.1,3.2-2.2,6.3-5.2,9.5-6.6,4.7-5.5,9.5,8.3,14.2,1,4.7,1,9.5-.6,14.2,2.9,4.7,0.2,9.4,7.8,14.1.9,4.7-1.2,9.4-8.8,14.1-4.8,9.4-10.7,18.7-9.3,28-6.9l13.9,3.2c4.6,1.1,9.2,2.4,13.8,3.7,4.6,3.1,9.1,9.2,13.7,7.5,4.5,0.8,9.1-2.3,13.6-3s9-7.5,13.5-5.5c4.5-2.8,8.9-1.9,13.3,1,4.4-.5,8.8-5.5,13.2-7s8.7-4.5,13.1-2.8c4.3-1,8.6-3.3,12.9,2.1a19.6,19.6,0,0,0,12.7,7.7c4.2-.8,8.4-0.5,12.6-1.1,4.2,2.2,8.3-4.1,12.4-2.2,4.1-8.3,8.2.8,12.2-2.3,4,6.7,8,7,12,5.6,4-7.5,7.9-14.7,11.8-7.4,3.9,0.4,7.7-5.7,11.5-3.2,3.8,0.8,7.6,3,11.3,2.1,3.7,2,7.4-4.2,11.1,8.5,3.6,2,7.2-1.2,10.8,3.8,3.6-1.4,7.1-1.1,10.5-1.2,3.5-3.1,6.9-.8,10.3,0s6.7-1.2,10-2.6c3.3,7.3,6.5,12.3,9.7,9.9,3.2-4.7,6.3-4.3,9.4-9.1,3.1-8.3,6.1-8.7,9.1-8.6,3-3.7,5.9,6,8.8,7.7,5.7,4,11.2-3,16.5-6.2,5.3,6.3,10.3-7.8,15.1,6.2,4.8-7.2,9.3-8.5,13.6-7.4s8.3,4.7,12,7.4c7.5,7.6,13.9,5.5,19.1,0s9.2,14.7,11.9,0c2.7,3.2,4.1,5.8,4.1,0V517.4Z" fill="#797979"/><path d="M920.8,383.5a10.4,10.4,0,0,0-2.9-3.3c-3.1-1.9-6.8-2.7-10.3-3.7a34.9,34.9,0,0,1-3.9-1.1,43.8,43.8,0,0,0-9.4-2.8,72.4,72.4,0,0,1-9.2-2.3c-1.8-.6-3.5-1.6-5.3-2.3l-9.5-3.3-8.9-2.7-10.7-3.4-9.6-2.9-8.2-2.6c-5.8-1.8-11.5-3.7-17.3-5.3s-9.7-2.3-14.5-3.4l-2.2-.3c-6.8-.9-13.6-1.8-20.1-4.2-3.7-1.4-7.4-2.5-11.2-3.7-1.5-.5-3-0.6-4.5-1-4.5-1.3-8.9-3.1-13.6-4.2a159,159,0,0,1-15.5-4.6c-7.6-2.6-15.2-5.4-23-7.5-2.8-.8-5.6-1.9-8.3-2.9s-4.2-1.8-6.4-2.4c-5.3-1.4-10.5-3-15.7-4.8l-12.3-4.1-5.6-1.7-8.6-2.8-9.9-3.5c-2.4-.8-4.8-1.6-7.1-2.5s-7-3.1-10-4.4c-0.8-1.2-1.1-2.1-1.8-2.5-4.2-2.7-8.3-5.5-12.6-8a69.2,69.2,0,0,1-11.6-7.7c-3.1-2.7-6.1-5.5-9-8.3a86.6,86.6,0,0,1-7.6-8c-1.6-2.1-2.9-4.4-5.2-5.8a2.2,2.2,0,0,1-.6-0.8c-1.6-2.7-3.1-5.4-4.8-8a68.6,68.6,0,0,1-6.6-12c-0.6-1.7-1.7-3.2-2.3-4.9-1.4-4-3-7.9-4.1-12s-2.1-5.3-3-8c-1.5-4.4-2.8-8.9-4.2-13.3a140.4,140.4,0,0,1-5.3-22.4,67,67,0,0,0-2-9.1c-0.9-3.2-2.2-6.3-3.3-9.4-2.3-6.5-4.5-13.1-7.1-19.5s-3.9-10.4-6.8-15.2a94.6,94.6,0,0,0-8.1-12.2l-5.8-7.3a95.5,95.5,0,0,0-12-12.6c-4.6-3.8-8.9-7.9-13.5-11.7a73.1,73.1,0,0,0-10.6-7.4,66.2,66.2,0,0,0-11.8-4.8c-4.5-1.4-9.1-2.4-13.8-3.5l-21.5-4.7c-2.5-.6-5-1.5-7.6-2-4.6-.8-9.2-1.4-13.8-2a67,67,0,0,0-16.9,0c-2.1.3-4.1,0.7-6.2,1.1l-6.2,1.6c-5.1,1.4-10.4,2.5-15.4,4.2a105.3,105.3,0,0,0-14.3,5.8,102,102,0,0,0-16.4,10.2c-3.1,2.5-5.9,5.4-9,8a72.5,72.5,0,0,0-11.4,12.1,69.4,69.4,0,0,0-5.8,9.3c-1.4,2.8-2.7,5.6-4.3,8.3-5.5,9.3-10.8,18.7-14.9,28.7a10.3,10.3,0,0,1-1.6,2.8,81.3,81.3,0,0,1-6.4,7.1c-4.7,4.3-8.3,9.5-12,14.5l-2.1,3c-2.4,3.6-4.7,7.2-7.3,10.7s-5.9,7.8-8.9,11.7l-1.5,1.6c-3.1,3.2-6.3,6.2-9.2,9.5a31.9,31.9,0,0,1-11.4,8.7c-5.4,2.3-10.5,5.4-16.2,6.9a43.3,43.3,0,0,1-8.7,1.5,40.6,40.6,0,0,0-5.1.6,2.5,2.5,0,0,1-2.2-.6A11.8,11.8,0,0,0,194,212c-2.6-.8-5.2-1.2-7.8-1.8l-10-2.1-4.6-.8c-3.1-.4-6.1-0.9-9.2-1.1a63.9,63.9,0,0,0-10.5-.3c-3.5.3-7.2-.2-10.4,2.1a6.2,6.2,0,0,1-1.4.4,12.5,12.5,0,0,0-2.5,1.1c-3.2,2.2-6.4,4.3-9.5,6.6s-5.3,4.3-8,6.5l-11.2,9.1c-1.5,1.2-3,2.5-4.6,3.7a43,43,0,0,0-3.9,2.6,46.5,46.5,0,0,1-8.9,6.1c-2.2,1.3-4.3,2.6-6.4,4a2.7,2.7,0,0,0-1.2,1.7c-0.3,3.1-1.8,5.7-2.9,8.5s-1.7,3.3-1.5,5.3,1.1,6.5,4.1,8.6c1.5,1.1,2.6,2.7,4.4,2.5l3,5.3c1.2,2.3,3.2,2.7,5.9,2.6l-0.5-4.7c-0.1-1.2-.4-2.4-0.4-3.6a1.6,1.6,0,0,1,.8-1.3,1.8,1.8,0,0,1,1.3.7,8.7,8.7,0,0,1,.8,1.5,5.9,5.9,0,0,0,3.7,3c1.6,0.4,1.9.1,2.1-1.6a13.7,13.7,0,0,1,.9-4.2c0.9-2,1.9-2.1,3.6-.6a34.3,34.3,0,0,0,3.4,2.7c2,1.3,2.4,1.1,3.4-1.1l0.3-.7a3.3,3.3,0,0,1,5.3-.7c1.2,1.1,2.2,2.4,3.4,3.4s2.2,0.7,2.9-.8l1.7-3.8c3.8,0.2,7.5-.2,11.2.5-1.6,1.3-3.2,2.3-4.8,3.4s-3.1,2.4-4.7,3.6a2.4,2.4,0,0,1-2.7.6c-2.7-1.1-2.9-1-3.8,1.7-0.1.3-.2,0.6-0.3,0.9s-1.3,1.9-2.9,1.5-1.7-.6-2.5-0.9l-1.5-.2a26.4,26.4,0,0,1-.9,3c-1.2,2.6-2.6,2.8-4.5.7a7.4,7.4,0,0,0-1.2-1.2,8.6,8.6,0,0,0-1.7-.6c-1.2,1.8-.4,4.1-2.4,5.2-1.3-.9-2.6-1.9-3.9-2.7s-2.1-.3-2.4,1.2-0.3,2.6-.4,3.9a13.4,13.4,0,0,1-.3,3.1,2.6,2.6,0,0,0,.4,2.5,15.5,15.5,0,0,0,4.9,4.7c1.5,1,2.6,1.3,4.2.8a48.1,48.1,0,0,1,6.5-2.1c3.6-.7,7.2-1.5,10.9-1.2a29.6,29.6,0,0,0,13.1-2.4c2.6-1,5-2.5,7.4-3.7s7.7-4,11.6-5.8a72.3,72.3,0,0,1,9.7-3.9,19.5,19.5,0,0,1,7-.6,28.2,28.2,0,0,1,6.1,1.7,19.3,19.3,0,0,0,6.7,1.1l14.5-.4a13,13,0,0,1,3.4.4l19,4.9a68.7,68.7,0,0,1,9.3,3,113.2,113.2,0,0,0,18.9,6,49.1,49.1,0,0,1,6,2.2l9.1,3.5c1.5,0.5,3.1.8,4.8,1.3,0,2.7.1,5.1,0,7.6a10.1,10.1,0,0,1-.7,3.5c-2,4.6-4.1,9.2-6.3,13.8a11,11,0,0,1-4.4,5.2,39.4,39.4,0,0,0-12,11.1,19.4,19.4,0,0,1-7.2,6.3,7.4,7.4,0,0,0-1.4,1c-3.4,2.8-7.4,4.2-11.5,5.2-1.9.5-3.6,1-4.8,2.5-2.8-1.8-7,1.9-8.9,5.7a4.4,4.4,0,0,0,4.6,2.4c2-.2,4.2-0.6,6.1-0.2a20.7,20.7,0,0,0,7,.6l11.2-1.1c1.9-.2,3.8,0,5.6-0.2,6.1-.6,12.2-1.4,18.3-1.9a4.7,4.7,0,0,0,4.2-2.5,22.7,22.7,0,0,1,1.5-2.5,27.3,27.3,0,0,1,3.3-3.9c3.8-3.4,7.7-6.5,11.4-10s5.9-6.6,9.1-9.6a53.6,53.6,0,0,0,7.3-8.6l0.9-1.1c1.4,1,2.7,1.9,4,2.7a2.7,2.7,0,0,1,1.4,3.1,20.6,20.6,0,0,0-.1,3.6c0,1.5.2,2.9,0.2,4.4a146.6,146.6,0,0,1-.7,20.3c-0.4,3.7-.9,7.3-3.3,10.4-0.9,1.1-1.6,2.5-3.4,2.4a3.4,3.4,0,0,0-1.5.7c-3.7,2.2-7.4,4.5-11.8,5.2-2.4.4-4.2,1.5-3.1,5-0.4,1-2.1,1.6-1.3,2.9a3.7,3.7,0,0,0,3.7,1.6h1.5a7.3,7.3,0,0,1,2.5.6,10.2,10.2,0,0,0,6.4,1.2,18.7,18.7,0,0,1,4.9-.1c2.9,0.5,5.8.9,8.7,1.2a8.6,8.6,0,0,0,7.2-2.2c2.6-2.3,5-4.7,7.5-7s2.5-2.4,3.8-3.4a10.2,10.2,0,0,0,3.4-4.4c0.9-2.1,1.8-4.2,3.8-5.6a3.1,3.1,0,0,0,1-1.7,24.7,24.7,0,0,0,1-10.9,56,56,0,0,1-.6-6.6c-0.1-2,.1-3.9,0-5.9s-0.4-4.9-.2-7.3a32.5,32.5,0,0,1,1.6-8.1c4.5,1.2,8.7,2.6,13.1,3s8.3,1.9,12.5,2.1l13,0.6,15.9,0.2,21.4,0.5c3,0,6-.5,9.1-0.5H447l17.9-.6,9.1-.5c0.4,1.7.9,3.3,1.3,4.9s0.4,2,.6,3.1a21.6,21.6,0,0,0,4,9.4c1.8,2.2,3.8,4.3,5.8,6.3a13.2,13.2,0,0,0,2.4,2.1l9,5.6c2.6,1.6,5.4,2.8,7.8,4.6a80.4,80.4,0,0,1,6.6,5.9c-1,2.8-2.2,5.4-5.3,6.6a10.1,10.1,0,0,0-1,.7,8.4,8.4,0,0,1-2.3,1.1,23.4,23.4,0,0,0-8.2,3.2l-4,2.3-6.5,3,0.3,1.5-1.3,1.1a2.9,2.9,0,0,0-.9,3.3c0.4,1.1,1.5,1,2.5,1.2l4.8,0.8c3.7,0.7,7.1,2.3,10.9,2.5a34.9,34.9,0,0,1,4.8,1,11.7,11.7,0,0,0,2.4.3l11.5-.4a3.1,3.1,0,0,0,1.6-.4,94.9,94.9,0,0,0,7.9-5.8,47.7,47.7,0,0,1,12.9-8.4,47.5,47.5,0,0,0,9-5,5.2,5.2,0,0,0,1.6-2,9,9,0,0,0-.7-8.9c-2.2-3.5-4.5-7-6.6-10.6s-2.9-5.1-4.4-7.6-2-2.9-3.1-4.4l-1.3-1.8c5.9,0.2,10.9-1.6,16.2-2.8l1.4,1.9a13.7,13.7,0,0,0,5,4.3l11.3,6.3c2,1.1,4,2.3,6,3.3l11.7,5a43.4,43.4,0,0,1,4,2.3l-4.9,5.1a7,7,0,0,1-1.9,1.1c-2.3,1.1-4.7,1.9-6.3,4s-0.6,2.6,1.2,2.9l4.7,1a8.4,8.4,0,0,0,3.1.3c3.7-.8,7.5-0.4,11.2,0,5.3,0.5,10.4-.6,15.5-1.8A2.6,2.6,0,0,0,616,383c2.3-4.4,4.3-8.8,5.1-13.7a6.2,6.2,0,0,0-.7-4,17.3,17.3,0,0,0-6.5-6.5,20.1,20.1,0,0,1-5.7-5.2c-2.1-2.9-4.4-5.7-6.5-8.6a33.3,33.3,0,0,1-4.2-6.6,21.6,21.6,0,0,1,3.1-.5l5.6,0.2,5.9,0.4,13.9,1.3,14.2,1.2c1.7,0.2,3.3.7,5,1l8.6,1.7c3.6,0.7,7.2,1.2,10.8,1.9s7.6,1.9,11.5,2.7c6.6,1.4,13.4,2.2,19.9,4.1a100.7,100.7,0,0,0,11.5,2.7c7.1,1.3,14.2,2.3,21.3,3.4l19.1,3c3.9,0.7,7.9,1.5,11.8,2.4s10.5,2.6,15.8,3.7c7.9,1.6,15.9,3,24.1,3.2a85.5,85.5,0,0,1,15.6,1.9c9.7,2,19.5,2,29.2,3.5l16,2.3c5.9,0.9,11.6,2.6,17.6,3.3,9.7,1.1,19.4,2.8,29.1,4.2l8.5,1.2a5.9,5.9,0,0,0,4.6-1C921.1,385.3,921.4,384.4,920.8,383.5ZM493.6,292.4h0Z"/></svg>